<svg version="1.1" xmlns="http://www.w3.org/2000/svg" xmlns:xlink="http://www.w3.org/1999/xlink" width="511.88842" height="511.88842" viewBox="0,0,511.88842,511.88842"><defs><radialGradient cx="240" cy="180" r="246.72891" gradientUnits="userSpaceOnUse" id="color-1"><stop offset="0" stop-color="#363636"/><stop offset="1" stop-color="#363636" stop-opacity="0"/></radialGradient><radialGradient cx="240" cy="180" r="182.06805" gradientUnits="userSpaceOnUse" id="color-2"><stop offset="0" stop-color="#ffffff"/><stop offset="1" stop-color="#242424"/></radialGradient><linearGradient x1="296.05779" y1="269.87762" x2="414.88115" y2="269.87762" gradientUnits="userSpaceOnUse" id="color-3"><stop offset="0" stop-color="#353535"/><stop offset="1" stop-color="#ffffff"/></linearGradient></defs><g transform="translate(15.94421,75.94421)"><g data-paper-data="{&quot;isPaintingLayer&quot;:true}" fill-rule="nonzero" stroke-linejoin="miter" stroke-miterlimit="10" stroke-dasharray="" stroke-dashoffset="0" style="mix-blend-mode: normal"><path d="M-15.94421,180c0,-141.35408 114.59012,-255.94421 255.94421,-255.94421c141.35408,0 255.94421,114.59012 255.94421,255.94421c0,141.35408 -114.59012,255.94421 -255.94421,255.94421c-141.35408,0 -255.94421,-114.59012 -255.94421,-255.94421z" fill="#000000" stroke="#000000" stroke-width="0" stroke-linecap="butt"/><path d="M-6.72891,180c0,-136.26461 110.46429,-246.72891 246.72891,-246.72891c136.26461,0 246.72891,110.46429 246.72891,246.72891c0,136.26461 -110.46429,246.72891 -246.72891,246.72891c-136.26461,0 -246.72891,-110.46429 -246.72891,-246.72891z" fill="url(#color-1)" stroke="none" stroke-width="19" stroke-linecap="butt"/><path d="M57.93195,180c0,-100.55341 81.51464,-182.06805 182.06805,-182.06805c100.55341,0 182.06805,81.51464 182.06805,182.06805c0,100.55341 -81.51464,182.06805 -182.06805,182.06805c-100.55341,0 -182.06805,-81.51464 -182.06805,-182.06805z" fill="none" stroke="url(#color-2)" stroke-width="30.5" stroke-linecap="butt"/><path d="M296.05779,210.46594l118.82336,118.82336" fill="none" stroke="url(#color-3)" stroke-width="30.5" stroke-linecap="round"/></g></g></svg>